<svg width="318" height="82" viewBox="0 0 318 82" fill="none" xmlns="http://www.w3.org/2000/svg" role="img" aria-label="掃除のさとう">
  <rect width="318" height="82" fill="none"/>
  <circle cx="42" cy="41" r="30" fill="#FAFCFC" stroke="#DFE8E8" stroke-width="1.2"/>
  <path d="M51 26.8C46.7 22 36.5 21.5 31.3 26.1C24.7 32 30.2 37.8 38.2 39C47.4 40.4 51.6 46.4 45.8 52.7C40 58.9 27.7 56.6 24.7 48.2" stroke="#17324D" stroke-width="3.1" stroke-linecap="round"/>
  <path d="M59.6 21.4C59.6 21.4 63.1 25.7 63.1 29.1C63.1 31.7 61.5 33.5 59.6 33.5C57.7 33.5 56.1 31.7 56.1 29.1C56.1 25.7 59.6 21.4 59.6 21.4Z" fill="#BFA56A"/>
  <text x="92" y="37" fill="#17324D" font-family="-apple-system, BlinkMacSystemFont, 'Noto Sans JP', sans-serif" font-size="21.5" font-weight="660" letter-spacing=".06em">掃除のさとう</text>
  <text x="92" y="59" fill="#6E7E87" font-family="-apple-system, BlinkMacSystemFont, 'Noto Sans JP', sans-serif" font-size="11.5" letter-spacing=".15em">ハウスクリーニング専門</text>
</svg>