<svg width="290" height="78" viewBox="0 0 290 78" fill="none" xmlns="http://www.w3.org/2000/svg" role="img" aria-label="掃除のさとう">
  <rect width="290" height="78" fill="none"/>
  <circle cx="38" cy="39" r="28.5" fill="#F8FBFA" stroke="#DDE8E8" stroke-width="1.2"/>
  <path d="M47.2 25.4C43.4 20.8 33.6 20.3 28.7 24.7C22.4 30.3 27.7 36.1 35.3 37.4C44 38.9 48.3 44.5 42.8 50.5C37.2 56.7 25.2 54.7 22.4 46.6" stroke="#17324D" stroke-width="3.1" stroke-linecap="round"/>
  <path d="M55.5 20.4C55.5 20.4 59.1 24.5 59.1 28C59.1 30.7 57.4 32.4 55.5 32.4C53.6 32.4 51.9 30.7 51.9 28C51.9 24.5 55.5 20.4 55.5 20.4Z" fill="#D4B56B"/>
  <text x="86" y="34" fill="#17324D" font-family="-apple-system, BlinkMacSystemFont, 'Noto Sans JP', sans-serif" font-size="21" font-weight="650" letter-spacing=".055em">掃除のさとう</text>
  <text x="86" y="55" fill="#687887" font-family="-apple-system, BlinkMacSystemFont, 'Noto Sans JP', sans-serif" font-size="11.5" letter-spacing=".14em">ハウスクリーニング専門</text>
</svg>