<svg width="300" height="84" viewBox="0 0 300 84" fill="none" xmlns="http://www.w3.org/2000/svg" role="img" aria-label="掃除のさとう">
  <circle cx="38" cy="42" r="30" fill="#F7FBFD" stroke="#E4EEF2" stroke-width="1.2"/>
  <path d="M50 26.5C46.2 21.2 34.8 20.7 28.8 26.3C21.9 32.7 27.4 39.1 36.2 40.4C45.7 41.8 50.2 47.5 44.1 54.1C37.8 60.9 25.4 57.8 22.6 48.4" stroke="#78BED7" stroke-width="3.1" stroke-linecap="round"/>
  <path d="M56.8 20.5C56.8 20.5 61.2 25.1 61.2 29.1C61.2 32.1 59.2 34.1 56.8 34.1C54.5 34.1 52.4 32.1 52.4 29.1C52.4 25.1 56.8 20.5 56.8 20.5Z" fill="#D6B96A" fill-opacity=".72"/>
  <text x="88" y="38" fill="#17324D" font-family="-apple-system, BlinkMacSystemFont, 'Hiragino Sans', 'Noto Sans JP', sans-serif" font-size="22" font-weight="650" letter-spacing=".04em">掃除のさとう</text>
  <text x="88" y="58" fill="#71808A" font-family="-apple-system, BlinkMacSystemFont, 'Hiragino Sans', 'Noto Sans JP', sans-serif" font-size="11" letter-spacing=".16em">HOUSE CLEANING</text>
</svg>