<svg width="310" height="78" viewBox="0 0 310 78" fill="none" xmlns="http://www.w3.org/2000/svg" role="img" aria-label="掃除のさとう">
  <rect width="310" height="78" fill="none"/>
  <circle cx="39" cy="39" r="29" fill="#FAFCFC" stroke="#E0E9E9" stroke-width="1.2"/>
  <path d="M47.4 25.8C43.4 21.2 33.7 20.7 28.9 25.1C22.5 31 27.9 36.4 35.4 37.6C44.2 39 48.1 44.8 42.7 50.8C37.2 56.8 25.5 54.6 22.6 46.8" stroke="#17324D" stroke-width="3.05" stroke-linecap="round"/>
  <path d="M55.6 20.8C55.6 20.8 59 24.8 59 28.1C59 30.6 57.4 32.3 55.6 32.3C53.7 32.3 52.1 30.6 52.1 28.1C52.1 24.8 55.6 20.8 55.6 20.8Z" fill="#C4A567"/>
  <text x="88" y="35" fill="#17324D" font-family="-apple-system, BlinkMacSystemFont, 'Noto Sans JP', sans-serif" font-size="21" font-weight="660" letter-spacing=".06em">掃除のさとう</text>
  <text x="88" y="56" fill="#6E7E87" font-family="-apple-system, BlinkMacSystemFont, 'Noto Sans JP', sans-serif" font-size="11.5" letter-spacing=".15em">ハウスクリーニング専門</text>
</svg>